<?xml version="1.0" encoding="UTF-8"?>
<svg width="39px" height="41px" viewBox="0 0 39 41" version="1.1" xmlns="http://www.w3.org/2000/svg" xmlns:xlink="http://www.w3.org/1999/xlink">
    <!-- Generator: Sketch 41.2 (35397) - http://www.bohemiancoding.com/sketch -->
    <title>money-134</title>
    <desc>Created with Sketch.</desc>
    <defs></defs>
    <g id="Page-1" stroke="none" stroke-width="1" fill="none" fill-rule="evenodd">
        <g id="Reflexon" transform="translate(-160.000000, -1316.000000)" fill="#FFFFFF">
            <g id="Group-5" transform="translate(124.000000, 1183.000000)">
                <path d="M74.7548873,146.641583 L51.3597614,133.137963 C51.0420292,132.954012 50.5152626,132.954012 50.1975303,133.137963 L36.2507576,141.240135 C35.9330254,141.424085 35.9330254,141.725094 36.2507576,141.917406 L59.6458836,155.421026 C59.9719772,155.604976 60.4903824,155.604976 60.8081146,155.421026 L74.7548873,147.318854 C75.0810645,147.126542 75.0810645,146.825533 74.7548873,146.641583 L74.7548873,146.641583 L74.7548873,146.641583 Z M62.5640869,152.302233 C62.4386663,152.176812 62.2798001,152.059753 62.0958499,151.959417 C60.9085347,151.273784 58.9854186,151.273784 57.7981034,151.959417 C57.7061283,152.009585 57.6308759,152.068115 57.5556235,152.126644 L41.7944325,143.021107 C41.9449373,142.962578 42.0870807,142.895687 42.229224,142.812073 C43.4081778,142.12644 43.4081778,141.014377 42.2125013,140.320383 C42.0787193,140.245131 41.9449373,140.17824 41.7944325,140.11971 L48.2912206,136.340369 C48.3915571,136.423983 48.5002549,136.507597 48.6340369,136.582849 C49.8213521,137.268482 51.7444682,137.268482 52.9317834,136.582849 C53.0655654,136.507597 53.1826247,136.423983 53.2829612,136.332008 L69.0943204,145.462629 C68.885286,145.537881 68.684613,145.621495 68.5090242,145.730193 C67.3300704,146.415825 67.3300704,147.527888 68.5257469,148.221882 C68.7096972,148.33058 68.9103701,148.414194 69.1277659,148.489446 L62.5640869,152.302233 L62.5640869,152.302233 L62.5640869,152.302233 Z M64.4703967,148.857347 L63.4419476,149.459366 C63.2830815,149.551341 63.0238789,149.551341 62.8650127,149.459366 L61.0589558,148.414194 C60.9000897,148.322219 60.9000897,148.171714 61.0589558,148.079739 L62.0874049,147.47772 C62.246271,147.385745 62.5054736,147.385745 62.6643398,147.47772 L64.4703967,148.522892 C64.6293464,148.614867 64.6293464,148.765372 64.4703967,148.857347 L64.4703967,148.857347 L64.4703967,148.857347 Z M48.926685,141.072907 C48.7678189,141.164882 48.5086163,141.164882 48.3497502,141.072907 L46.5436933,140.036097 C46.3848272,139.944122 46.3848272,139.793617 46.5436933,139.701642 L47.5721423,139.099623 C47.7310085,139.007648 47.9902111,139.007648 48.1490772,139.099623 L49.9551341,140.144795 C50.1140002,140.23677 50.1140002,140.387274 49.9551341,140.47925 L48.926685,141.072907 L48.926685,141.072907 L48.926685,141.072907 Z M73.1746712,150.797186 L74.9974508,151.850719 L60.3817681,160.337514 L59.9051698,160.061589 L58.5589885,159.283981 L36,146.248598 L37.8060569,145.195065 L60.3650454,158.230448 L73.1746712,150.797186 L73.1746712,150.797186 L73.1746712,150.797186 Z M58.5840726,163.857653 L36,150.797186 L37.8060569,149.752014 L60.3901295,162.812481 L73.149587,155.395942 L74.9640053,156.441113 L60.4068522,164.902825 L59.9386153,164.626899 L58.5840726,163.857653 L58.5840726,163.857653 L58.5840726,163.857653 Z M73.1746712,159.886 L74.9974508,160.939533 L60.3817681,169.426328 L59.9051698,169.150403 L58.5589885,168.372795 L36,155.345773 L37.8060569,154.29224 L60.3650454,167.327623 L73.1746712,159.886 L73.1746712,159.886 L73.1746712,159.886 Z M73.149587,164.484756 L74.9640053,165.529928 L60.4068522,174 L59.9386153,173.724075 L58.592434,172.946467 L36,159.886 L37.8060569,158.840828 L60.3901295,171.901295 L73.149587,164.484756 L73.149587,164.484756 L73.149587,164.484756 Z M60.1224819,141.582951 C57.5471785,140.094626 53.383214,140.094626 50.8162721,141.582951 C48.2576914,143.071276 48.2744142,145.479351 50.8497175,146.967676 C53.4250209,148.456001 57.5889854,148.456001 60.147566,146.967676 C62.7062302,145.487713 62.6978689,143.071276 60.1224819,141.582951 L60.1224819,141.582951 L60.1224819,141.582951 Z M59.3365963,142.678291 L58.6844091,143.054553 C58.9854186,143.322117 59.1275619,143.598042 59.0857551,143.882329 C59.0523096,144.158254 58.859998,144.417457 58.5004589,144.651575 C58.4084837,144.710105 58.2496176,144.710105 58.1576425,144.651575 L57.2713368,144.158254 C57.1877231,144.108086 57.1710003,144.024472 57.2462527,143.974304 C57.4218415,143.857245 57.5138167,143.740186 57.5389008,143.631488 C57.5639849,143.497706 57.4970939,143.380646 57.321505,143.28031 C57.1459162,143.179973 56.9703273,143.138167 56.7780157,143.154889 C56.5940655,143.171612 56.4101152,143.22178 56.2512491,143.322117 C56.0840216,143.422453 55.9920465,143.52279 55.9836851,143.631488 C55.9669624,143.740186 56.025492,143.899052 56.1676354,144.099725 C56.493729,144.5596 56.6693178,144.944224 56.694402,145.236872 C56.7194861,145.52952 56.5104517,145.805445 56.0672989,146.056286 C55.6492301,146.298766 55.1809932,146.424187 54.6542266,146.415825 C54.2110737,146.415825 53.7762822,146.32385 53.3498521,146.156623 L52.7394718,146.516162 C52.6558581,146.56633 52.5304374,146.557969 52.4468237,146.516162 L51.9200571,146.206791 C51.8364434,146.156623 51.8364434,146.08137 51.9200571,146.039564 L52.5137147,145.696747 C52.1207301,145.404099 51.9033344,145.094728 51.8782502,144.768635 C51.8448047,144.459264 52.0538391,144.166616 52.4886306,143.89069 C52.5806057,143.832161 52.7394718,143.832161 52.8314469,143.89069 L53.7177526,144.384011 C53.8013664,144.43418 53.8180891,144.517793 53.7428367,144.567962 C53.5421638,144.710105 53.4418273,144.835526 53.4418273,144.960946 C53.4418273,145.111451 53.5421638,145.253594 53.7511981,145.370654 C53.926787,145.47099 54.1107372,145.521158 54.3030488,145.512797 C54.4953605,145.504436 54.6793107,145.454267 54.8381768,145.362292 C55.0304884,145.253594 55.1308249,145.136535 55.1391863,145.027837 C55.155909,144.910778 55.089018,144.760273 54.9552361,144.567962 C54.6040583,144.108086 54.4201081,143.731824 54.395024,143.447537 C54.3615785,143.163251 54.5789742,142.887325 55.0304884,142.619761 C55.4401958,142.385643 55.9167941,142.268584 56.4519221,142.276945 C56.9452432,142.285306 57.4218415,142.385643 57.8817171,142.586316 L58.5171816,142.218415 C58.6007954,142.168247 58.7345773,142.168247 58.8098297,142.218415 L59.3365963,142.527786 C59.4202101,142.561232 59.4202101,142.636484 59.3365963,142.678291 L59.3365963,142.678291 L59.3365963,142.678291 Z" id="money-134"></path>
            </g>
        </g>
    </g>
</svg>